<svg xmlns="http://www.w3.org/2000/svg" width="68.722" height="69.828" viewBox="0 0 68.722 69.828">
  <g id="icon" transform="translate(-2891.566 -4007)">
    <g id="doar" transform="translate(2930.246 4007)">
      <g id="Retângulo_362" data-name="Retângulo 362" fill="none" stroke="#0d13d7" stroke-width="1.5">
        <rect width="30.042" height="47.092" rx="4" stroke="none"/>
        <rect x="0.75" y="0.75" width="28.542" height="45.592" rx="3.25" fill="none"/>
      </g>
      <g id="Grupo_1465" data-name="Grupo 1465" transform="translate(5.684 4.872)">
        <g id="Retângulo_363" data-name="Retângulo 363" fill="none" stroke="#0d13d7" stroke-width="1.5">
          <rect width="19.487" height="17.051" rx="2" stroke="none"/>
          <rect x="0.75" y="0.75" width="17.987" height="15.551" rx="1.25" fill="none"/>
        </g>
        <g id="Retângulo_364" data-name="Retângulo 364" transform="translate(12.991 23.546)" fill="none" stroke="#0d13d7" stroke-width="1">
          <rect width="6.496" height="3.248" rx="1" stroke="none"/>
          <rect x="0.5" y="0.5" width="5.496" height="2.248" rx="0.5" fill="none"/>
        </g>
      </g>
    </g>
    <g id="boy" transform="translate(2892.451 4023.854)">
      <path id="Caminho_1395" data-name="Caminho 1395" d="M2913.215,3938.154c.58,7.031-10.837,8.663-11.743,0,1.341-5.944,6.343-6.2,9.134-4.458,3.153-.29,6.306-.616,6.306-.616s.94,4.683-1.916,4.924C2914.856,3937.992,2913.215,3938.154,2913.215,3938.154Z" transform="translate(-2899.019 -3932.758)" fill="none" stroke="#0d13d7" stroke-width="1.5"/>
      <path id="Caminho_1396" data-name="Caminho 1396" d="M2903.468,3986.137c-2.366,3.956-6.033-.311-4.752-2.459a62.656,62.656,0,0,0,3.028-6.507l.691-25.636s-.367-2.5,3.022-2.592c3.367-.156,6-.245,6-.245s2.576-.362,2.955,3.406c.535,3.746.78,5.441.78,5.441a2.609,2.609,0,0,0,2.787,2.274c.938-.017,3.991,0,3.991,0s4.75,1.438,0,3.846c-4.1.178-7.938,0-7.938,0v2.185l3.069,7.583a24.726,24.726,0,0,1,1.922,10.25c.075,1.469.346,4.122-2,4.293-1.122.013-2.958-.653-3.288-3.846-.159-1.729-.925-9.013-4.961-12.826C2908.169,3973.869,2905.833,3982.182,2903.468,3986.137Z" transform="translate(-2898.451 -3935.754)" fill="none" stroke="#0d13d7" stroke-width="1.5"/>
      <path id="Caminho_1397" data-name="Caminho 1397" d="M2920.559,3955.273c-.314-2.14-.465-7.238-.465-7.238s-.429-2.728,3.739-2.316c3.122.12,8.25,0,8.25,0s2.343.011,2.41,2.843c.112,3.033.268,6.711.268,6.711s-.223,2.319-3.188,2.252c-1.092-.022-8.986,0-8.986,0A2.371,2.371,0,0,1,2920.559,3955.273Z" transform="translate(-2901.708 -3936)" fill="none" stroke="#0d13d7" stroke-width="1.5"/>
    </g>
  </g>
</svg>
