<svg xmlns="http://www.w3.org/2000/svg" width="69.69" height="69.177" viewBox="0 0 69.69 69.177">
  <g id="icon" transform="translate(0 -0.345)">
    <path id="Caminho_1479" data-name="Caminho 1479" d="M116.251,30.307l0,.044a7.522,7.522,0,0,0,4.293,7.176l.029.014a5.057,5.057,0,0,1,2.29,2.2l.011.021a7.859,7.859,0,0,0,7.386,4.122l.047,0a5.379,5.379,0,0,1,3.18.827,8.062,8.062,0,0,0,8.55,0,5.379,5.379,0,0,1,3.18-.827l.047,0a7.864,7.864,0,0,0,7.388-4.126l.007-.015a5.067,5.067,0,0,1,2.3-2.207l.023-.011a7.522,7.522,0,0,0,4.293-7.176l0-.042a4.812,4.812,0,0,1,.838-2.983,7.4,7.4,0,0,0,0-8.368,4.812,4.812,0,0,1-.838-2.981l0-.044a7.521,7.521,0,0,0-4.3-7.177l-.025-.013a5.052,5.052,0,0,1-2.287-2.2l-.015-.029A7.865,7.865,0,0,0,145.262,2.4l-.048,0a5.375,5.375,0,0,1-3.178-.827h0a8.062,8.062,0,0,0-8.55,0,5.383,5.383,0,0,1-3.18.826l-.047,0a7.86,7.86,0,0,0-7.385,4.121l-.011.02a5.06,5.06,0,0,1-2.293,2.206l-.027.013a7.521,7.521,0,0,0-4.293,7.176l0,.042a4.81,4.81,0,0,1-.838,2.982,7.4,7.4,0,0,0,0,8.369,4.809,4.809,0,0,1,.837,2.982Zm1.3-9.878a7.418,7.418,0,0,0,1.292-4.6l0-.044a4.933,4.933,0,0,1,2.834-4.691l.022-.011a7.64,7.64,0,0,0,3.46-3.331l.013-.024a5.262,5.262,0,0,1,4.951-2.737l.046,0a7.949,7.949,0,0,0,4.7-1.222,5.453,5.453,0,0,1,5.784,0,7.967,7.967,0,0,0,4.7,1.223l.046,0a5.253,5.253,0,0,1,4.949,2.732l.017.032a7.639,7.639,0,0,0,3.457,3.327l.022.011a4.934,4.934,0,0,1,2.836,4.693l0,.046a7.417,7.417,0,0,0,1.293,4.6,4.792,4.792,0,0,1,0,5.421,7.425,7.425,0,0,0-1.292,4.6l0,.044a4.936,4.936,0,0,1-2.837,4.695l-.019.009a7.649,7.649,0,0,0-3.464,3.336l-.009.019a5.259,5.259,0,0,1-4.951,2.737l-.045,0a7.964,7.964,0,0,0-4.7,1.223,5.454,5.454,0,0,1-5.783,0,7.951,7.951,0,0,0-4.262-1.235q-.22,0-.44.012l-.046,0a5.256,5.256,0,0,1-4.952-2.739l-.013-.025A7.631,7.631,0,0,0,121.7,35.2l-.024-.012a4.933,4.933,0,0,1-2.836-4.693l0-.046a7.424,7.424,0,0,0-1.293-4.6,4.792,4.792,0,0,1,0-5.421Zm0,0" transform="translate(-95.609)" fill="#0d13d7"/>
    <path id="Caminho_1480" data-name="Caminho 1480" d="M205.115,83.959a1.3,1.3,0,0,0,1.787-.414l15.37-24.623a1.3,1.3,0,1,0-2.2-1.374L204.7,82.171A1.3,1.3,0,0,0,205.115,83.959Zm0,0" transform="translate(-171.336 -47.404)" fill="#0d13d7"/>
    <path id="Caminho_1481" data-name="Caminho 1481" d="M187.164,73.787c3.16,0,5.73-2.931,5.73-6.534s-2.571-6.534-5.73-6.534-5.73,2.931-5.73,6.534S184,73.787,187.164,73.787Zm0-10.473c1.729,0,3.135,1.767,3.135,3.939s-1.406,3.939-3.135,3.939-3.135-1.768-3.135-3.939S185.435,63.314,187.164,63.314Zm0,0" transform="translate(-152.007 -50.581)" fill="#0d13d7"/>
    <path id="Caminho_1482" data-name="Caminho 1482" d="M267.684,147.05c0,3.6,2.57,6.534,5.73,6.534s5.73-2.931,5.73-6.534-2.57-6.534-5.73-6.534S267.684,143.446,267.684,147.05Zm8.865,0c0,2.172-1.406,3.939-3.135,3.939s-3.135-1.767-3.135-3.939,1.406-3.939,3.135-3.939S276.549,144.876,276.549,147.05Zm0,0" transform="translate(-224.269 -117.436)" fill="#0d13d7"/>
    <path id="Caminho_1483" data-name="Caminho 1483" d="M69.522,273.313a6.554,6.554,0,0,0-8.655-2.638l-10.164,4.8a8.279,8.279,0,0,0-7.058-4.354l-9.383-.258a9.919,9.919,0,0,1-4.264-1.1l-.955-.495a16.84,16.84,0,0,0-15.6.016l.06-2.163a1.3,1.3,0,0,0-1.261-1.333l-10.289-.283a1.3,1.3,0,0,0-1.332,1.261L0,289.346a1.3,1.3,0,0,0,1.261,1.333l10.289.283h.036a1.3,1.3,0,0,0,1.3-1.262l.029-1.08,2.673-1.431a4.587,4.587,0,0,1,3.422-.374l15.961,4.48c.028.008.056.015.084.021a17.086,17.086,0,0,0,3.509.362,17.312,17.312,0,0,0,7.232-1.578,1.273,1.273,0,0,0,.161-.087L69.1,275.041a1.3,1.3,0,0,0,.425-1.728ZM2.631,288.12l.55-19.984,7.7.212-.551,19.985Zm41.994-.34a14.706,14.706,0,0,1-9,1L19.71,284.316a7.172,7.172,0,0,0-5.348.585L13,285.632l.366-13.287a14.261,14.261,0,0,1,14.489-.773l.955.495a12.525,12.525,0,0,0,5.387,1.391l9.383.258a5.69,5.69,0,0,1,5.409,4.534l-13.976-.385a1.3,1.3,0,0,0-.071,2.594l15.424.424H50.4a1.3,1.3,0,0,0,1.3-1.262,8.279,8.279,0,0,0-.125-1.683l10.423-4.926.03-.015a3.963,3.963,0,0,1,4.483.627Zm0,0" transform="translate(0 -222.154)" fill="#0d13d7"/>
  </g>
</svg>
