<svg id="icon" xmlns="http://www.w3.org/2000/svg" width="69.729" height="69.729" viewBox="0 0 69.729 69.729">
  <g id="Grupo_1530" data-name="Grupo 1530" transform="translate(37.19 17.426)">
    <g id="Grupo_1529" data-name="Grupo 1529">
      <path id="Caminho_1484" data-name="Caminho 1484" d="M268.2,126.03l-.746-2.456a5.334,5.334,0,0,0-10.1,0l-.746,2.456a13.793,13.793,0,0,0-.385,6.392,6.012,6.012,0,0,0,3.1,4.19l-.836,18.679a3.68,3.68,0,0,0,.93,2.861,4.059,4.059,0,0,0,5.735.257q.134-.123.257-.257a3.631,3.631,0,0,0,.93-2.783l-.84-18.759a6.011,6.011,0,0,0,3.091-4.187A13.793,13.793,0,0,0,268.2,126.03Zm-1.9,5.987a3.685,3.685,0,0,1-2.411,2.776,1.162,1.162,0,0,0-.752,1.14l.883,19.618a1.344,1.344,0,0,1-.349,1.053,1.8,1.8,0,0,1-2.526,0,1.4,1.4,0,0,1-.342-1.13l.876-19.541a1.162,1.162,0,0,0-.752-1.14,3.685,3.685,0,0,1-2.411-2.776,11.46,11.46,0,0,1,.32-5.306l.746-2.457a3.013,3.013,0,0,1,5.653,0l.746,2.457A11.476,11.476,0,0,1,266.294,132.018Z" transform="translate(-256.012 -119.955)" fill="#0d13d7"/>
    </g>
  </g>
  <g id="Grupo_1532" data-name="Grupo 1532" transform="translate(19.756 17.432)">
    <g id="Grupo_1531" data-name="Grupo 1531">
      <path id="Caminho_1485" data-name="Caminho 1485" d="M147.621,120a1.162,1.162,0,0,0-1.162,1.162v9.978l-3.146,3.146a1.162,1.162,0,0,0-.341.88L143.99,155.5a1.583,1.583,0,0,1-.439,1.184,1.636,1.636,0,0,1-2.314.01l-.01-.01a1.582,1.582,0,0,1-.439-1.184l1.024-20.337a1.162,1.162,0,0,0-.339-.88l-3.147-3.146v-9.978a1.162,1.162,0,1,0-2.324,0v10.459a1.162,1.162,0,0,0,.341.822l3.121,3.123-.991,19.825a3.926,3.926,0,1,0,7.842.382q.009-.191,0-.382l-.991-19.825,3.122-3.123a1.162,1.162,0,0,0,.34-.822V121.162A1.162,1.162,0,0,0,147.621,120Z" transform="translate(-136 -120)" fill="#0d13d7"/>
    </g>
  </g>
  <g id="Grupo_1534" data-name="Grupo 1534" transform="translate(23.243 17.432)">
    <g id="Grupo_1533" data-name="Grupo 1533">
      <path id="Caminho_1486" data-name="Caminho 1486" d="M161.162,120A1.162,1.162,0,0,0,160,121.162v9.3a1.162,1.162,0,0,0,2.324,0v-9.3A1.162,1.162,0,0,0,161.162,120Z" transform="translate(-160 -120)" fill="#0d13d7"/>
    </g>
  </g>
  <g id="Grupo_1536" data-name="Grupo 1536" transform="translate(26.729 17.432)">
    <g id="Grupo_1535" data-name="Grupo 1535">
      <path id="Caminho_1487" data-name="Caminho 1487" d="M185.162,120A1.162,1.162,0,0,0,184,121.162v9.3a1.162,1.162,0,0,0,2.324,0v-9.3A1.162,1.162,0,0,0,185.162,120Z" transform="translate(-184 -120)" fill="#0d13d7"/>
    </g>
  </g>
  <g id="Grupo_1538" data-name="Grupo 1538">
    <g id="Grupo_1537" data-name="Grupo 1537">
      <path id="Caminho_1488" data-name="Caminho 1488" d="M34.864,0A34.864,34.864,0,1,0,69.729,34.864,34.864,34.864,0,0,0,34.864,0Zm0,67.4A32.54,32.54,0,1,1,67.4,34.864,32.54,32.54,0,0,1,34.864,67.4Z" fill="#0d13d7"/>
    </g>
  </g>
  <g id="Grupo_1540" data-name="Grupo 1540" transform="translate(31.104 55.63)">
    <g id="Grupo_1539" data-name="Grupo 1539">
      <path id="Caminho_1489" data-name="Caminho 1489" d="M221.646,384a1.162,1.162,0,0,0-1.27-1.044l-.045.005h0a21.349,21.349,0,0,1-4.925,0,1.162,1.162,0,1,0-.271,2.309,23.537,23.537,0,0,0,5.462,0A1.162,1.162,0,0,0,221.646,384Z" transform="translate(-214.113 -382.949)" fill="#0d13d7"/>
    </g>
  </g>
  <g id="Grupo_1542" data-name="Grupo 1542" transform="translate(49.289 19.474)">
    <g id="Grupo_1541" data-name="Grupo 1541">
      <path id="Caminho_1490" data-name="Caminho 1490" d="M342.651,134.468a1.162,1.162,0,0,0-1.637-.144l0,0a1.162,1.162,0,0,0-.139,1.637,20.919,20.919,0,0,1-1.233,28.295,1.162,1.162,0,0,0,1.641,1.647A23.243,23.243,0,0,0,342.651,134.468Z" transform="translate(-339.295 -134.053)" fill="#0d13d7"/>
    </g>
  </g>
  <g id="Grupo_1545" data-name="Grupo 1545" transform="translate(25.913 11.625)">
    <g id="Grupo_1544" data-name="Grupo 1544">
      <g id="Grupo_1543" data-name="Grupo 1543">
        <path id="Caminho_1491" data-name="Caminho 1491" d="M186.358,105.743h0Z" transform="translate(-185.194 -102.007)" fill="#0d13d7"/>
        <path id="Caminho_1492" data-name="Caminho 1492" d="M192.815,80.673a23.449,23.449,0,0,0-13.68.84,1.161,1.161,0,1,0,.815,2.174,21.112,21.112,0,0,1,12.319-.755,1.162,1.162,0,0,0,.546-2.259Z" transform="translate(-178.382 -80.027)" fill="#0d13d7"/>
      </g>
    </g>
  </g>
  <g id="Grupo_1547" data-name="Grupo 1547" transform="translate(11.62 20.699)">
    <g id="Grupo_1546" data-name="Grupo 1546">
      <path id="Caminho_1493" data-name="Caminho 1493" d="M88.415,171.413a20.916,20.916,0,0,1-2.1-27.064,1.162,1.162,0,1,0-1.858-1.4l-.02.028a23.243,23.243,0,0,0,2.332,30.079,1.164,1.164,0,1,0,1.647-1.646Z" transform="translate(-79.989 -142.488)" fill="#0d13d7"/>
    </g>
  </g>
</svg>
