<svg xmlns="http://www.w3.org/2000/svg" width="71" height="69" viewBox="0 0 71 69">
  <g id="icon" transform="translate(-5974 -2924)">
    <g id="delivery_1_" data-name="delivery (1)" transform="translate(5974 2927.286)">
      <path id="Caminho_1473" data-name="Caminho 1473" d="M103.419,384a7.419,7.419,0,1,0,7.419,7.419A7.428,7.428,0,0,0,103.419,384Zm0,12.719a5.3,5.3,0,1,1,5.3-5.3A5.306,5.306,0,0,1,103.419,396.719Zm0,0" transform="translate(-83.281 -333.125)" fill="#0d13d7"/>
      <path id="Caminho_1474" data-name="Caminho 1474" d="M131.18,416a3.18,3.18,0,1,0,3.18,3.18A3.184,3.184,0,0,0,131.18,416Zm0,4.24a1.06,1.06,0,1,1,1.06-1.06A1.061,1.061,0,0,1,131.18,420.24Zm0,0" transform="translate(-111.042 -360.885)" fill="#0d13d7"/>
      <path id="Caminho_1475" data-name="Caminho 1475" d="M65.714,58.295a11.668,11.668,0,0,0-7.638-10.93L56.193,31.357a5.248,5.248,0,0,0,2.1.44h3.18a2.122,2.122,0,0,0,2.12-2.12V23.318a2.122,2.122,0,0,0-2.12-2.12H43.456a3.18,3.18,0,0,0,0,6.359h5.3V47.913a11.723,11.723,0,0,0-3.672,2.962H40.016L36.381,38.157h3.895V37.1a7.424,7.424,0,0,0-6.359-7.334V0H2.12V29.873A3.175,3.175,0,0,0,0,32.857v2.12a3.184,3.184,0,0,0,3.18,3.18H7.1A11.648,11.648,0,0,0,2.12,47.7V59.355H10.6V58.3a9.539,9.539,0,1,1,19.078,0v1.06H46.721a7.409,7.409,0,0,0,14.669,0h4.324Zm-4.24-34.977v6.359H58.295a3.161,3.161,0,0,1-2.435-1.161l0-.023-.015,0a3.148,3.148,0,0,1-.726-2,3.184,3.184,0,0,1,3.18-3.18Zm-18.018,2.12a1.06,1.06,0,0,1,0-2.12h5.3v2.12Zm7.419-2.12h3.207a5.2,5.2,0,0,0-.266,5.984l2.057,17.489a11.244,11.244,0,0,0-5,.289Zm-31.8,4.24v-2.12H21.2v4.24H14.839v-4.24h2.12v2.12Zm-6.359-4.24v6.359H4.24V8.479h8.479v6.359h10.6V8.479H31.8v21.2H23.318V23.318ZM21.2,8.479v4.24h-2.12V10.6h-2.12v2.12h-2.12V8.479ZM14.839,6.36V2.12H21.2V6.36Zm16.958,0H23.318V2.12H31.8ZM12.719,2.12V6.36H4.24V2.12ZM3.18,36.037a1.061,1.061,0,0,1-1.06-1.06v-2.12A1.061,1.061,0,0,1,3.18,31.8H32.857a5.308,5.308,0,0,1,5.192,4.24Zm28.57,21.2a11.66,11.66,0,0,0-23.223,0H4.24V47.7a9.55,9.55,0,0,1,9.539-9.539h20.4L38.417,53h5.259a11.543,11.543,0,0,0-1.232,4.24Zm22.306,6.359a5.309,5.309,0,0,1-5.192-4.24H59.248A5.309,5.309,0,0,1,54.055,63.594Zm-9.481-6.359a9.54,9.54,0,0,1,18.961,0Zm0,0" transform="translate(0 0)" fill="#0d13d7"/>
      <path id="Caminho_1476" data-name="Caminho 1476" d="M224,304h2.12v2.12H224Zm0,0" transform="translate(-194.323 -263.724)" fill="#0d13d7"/>
      <path id="Caminho_1477" data-name="Caminho 1477" d="M192,304h2.12v2.12H192Zm0,0" transform="translate(-166.562 -263.724)" fill="#0d13d7"/>
      <path id="Caminho_1478" data-name="Caminho 1478" d="M160,304h2.12v2.12H160Zm0,0" transform="translate(-138.802 -263.724)" fill="#0d13d7"/>
    </g>
    <text id="free" transform="translate(6012 2941)" fill="#0d13d7" font-size="16" font-family="NotoSans-Bold, Noto Sans" font-weight="700"><tspan x="0" y="0">free</tspan></text>
  </g>
</svg>
