<svg id="icon" xmlns="http://www.w3.org/2000/svg" width="70" height="70" viewBox="0 0 70 70">
  <g id="Grupo_1549" data-name="Grupo 1549" transform="translate(7.383)">
    <g id="Grupo_1548" data-name="Grupo 1548">
      <path id="Caminho_1494" data-name="Caminho 1494" d="M95.152,0H67.945a13.946,13.946,0,0,0-1.367,27.824v4.852a1.367,1.367,0,0,0,2.334.967l5.752-5.752H88.57l5.752,5.752a1.367,1.367,0,0,0,2.334-.967V27.81A13.946,13.946,0,0,0,95.152,0Zm.122,25.155a1.367,1.367,0,0,0-1.353,1.367v2.853L90.1,25.557a1.367,1.367,0,0,0-.967-.4H74.1a1.367,1.367,0,0,0-.967.4l-3.818,3.818V26.523a1.367,1.367,0,0,0-1.367-1.367,11.211,11.211,0,1,1,0-22.422H95.152a11.21,11.21,0,0,1,.122,22.42Z" transform="translate(-54)" fill="#0d13d7"/>
    </g>
  </g>
  <g id="Grupo_1551" data-name="Grupo 1551" transform="translate(26.541 5.469)">
    <g id="Grupo_1550" data-name="Grupo 1550">
      <path id="Caminho_1495" data-name="Caminho 1495" d="M211.893,41.9a1.367,1.367,0,0,0-1.934,0l-.987.987a8.452,8.452,0,1,0,1.48,2.387l1.441-1.441A1.367,1.367,0,0,0,211.893,41.9ZM202.6,54.219a5.742,5.742,0,1,1,4.431-9.39l-3.287,3.287-1.426-1.426a1.367,1.367,0,0,0-1.934,1.934l2.393,2.393a1.367,1.367,0,0,0,1.933,0l3.541-3.541a5.735,5.735,0,0,1-5.653,6.744Z" transform="translate(-194.127 -40)" fill="#0d13d7"/>
    </g>
  </g>
  <g id="Grupo_1553" data-name="Grupo 1553" transform="translate(0 32.276)">
    <g id="Grupo_1552" data-name="Grupo 1552">
      <path id="Caminho_1496" data-name="Caminho 1496" d="M19.407,250.021a7.024,7.024,0,0,0,1.6-4.463v-2.422a7.057,7.057,0,0,0-14.115,0v2.422a7.024,7.024,0,0,0,1.6,4.463A10.172,10.172,0,0,0,0,260.038v12.4A1.367,1.367,0,0,0,1.367,273.8H26.523a1.367,1.367,0,0,0,1.367-1.367v-12.4A10.172,10.172,0,0,0,19.407,250.021Zm-9.785-6.886a4.323,4.323,0,1,1,8.646,0v2.422a4.323,4.323,0,1,1-8.646,0Zm15.534,27.932H2.734v-11.03a7.431,7.431,0,0,1,7.423-7.423h2.421v3.45a1.367,1.367,0,1,0,2.734,0v-3.45h2.421a7.431,7.431,0,0,1,7.423,7.423Z" transform="translate(0 -236.078)" fill="#0d13d7"/>
    </g>
  </g>
  <g id="Grupo_1555" data-name="Grupo 1555" transform="translate(42.109 32.276)">
    <g id="Grupo_1554" data-name="Grupo 1554">
      <path id="Caminho_1497" data-name="Caminho 1497" d="M327.407,250.021a7.024,7.024,0,0,0,1.6-4.463v-2.422a7.057,7.057,0,1,0-14.115,0v2.422a7.024,7.024,0,0,0,1.6,4.463A10.172,10.172,0,0,0,308,260.038v12.4a1.367,1.367,0,0,0,1.367,1.367h25.156a1.367,1.367,0,0,0,1.367-1.367v-12.4A10.172,10.172,0,0,0,327.407,250.021Zm-9.785-6.886a4.323,4.323,0,1,1,8.646,0v2.422a4.323,4.323,0,1,1-8.646,0Zm15.534,27.932H310.734v-11.03a7.431,7.431,0,0,1,7.423-7.423h2.421v3.45a1.367,1.367,0,0,0,2.734,0v-3.45h2.421a7.431,7.431,0,0,1,7.423,7.423Z" transform="translate(-308 -236.078)" fill="#0d13d7"/>
    </g>
  </g>
  <g id="Grupo_1557" data-name="Grupo 1557" transform="translate(54.687 55.852)">
    <g id="Grupo_1556" data-name="Grupo 1556">
      <path id="Caminho_1498" data-name="Caminho 1498" d="M402.334,408.919a1.368,1.368,0,1,0,.4.967A1.376,1.376,0,0,0,402.334,408.919Z" transform="translate(-400 -408.52)" fill="#0d13d7"/>
    </g>
  </g>
  <g id="Grupo_1559" data-name="Grupo 1559" transform="translate(12.578 55.852)">
    <g id="Grupo_1558" data-name="Grupo 1558">
      <path id="Caminho_1499" data-name="Caminho 1499" d="M94.334,408.919a1.368,1.368,0,1,0,.4.967A1.376,1.376,0,0,0,94.334,408.919Z" transform="translate(-92 -408.52)" fill="#0d13d7"/>
    </g>
  </g>
</svg>
