<svg xmlns="http://www.w3.org/2000/svg" width="68.411" height="68.409" viewBox="0 0 68.411 68.409">
  <g id="icon" transform="translate(0 -0.5)">
    <path id="Caminho_1414" data-name="Caminho 1414" d="M265.291,157.07a15.962,15.962,0,1,0-15.963-15.963A15.963,15.963,0,0,0,265.291,157.07Zm0-29.645a13.682,13.682,0,1,1-13.682,13.682A13.683,13.683,0,0,1,265.291,127.425Zm0,0" transform="translate(-231.085 -115.525)" fill="#0d13d7"/>
    <path id="Caminho_1415" data-name="Caminho 1415" d="M65.913,585.088a5.347,5.347,0,0,0-5.17-.316L47.56,591.017a5.13,5.13,0,0,0-4.8-6.935H28.966A16.178,16.178,0,0,0,10.1,581.726l-.136.076H0v2.281H9.122v19.383H0v2.28H40.095a21.684,21.684,0,0,0,10.854-2.915l14.783-8.558a5.37,5.37,0,0,0,.182-9.185ZM64.589,592.3l-14.783,8.558a19.4,19.4,0,0,1-9.712,2.609H11.4V583.615a13.886,13.886,0,0,1,16.3,2.414,1.142,1.142,0,0,0,.806.334H42.757a2.85,2.85,0,0,1,0,5.7H28.5a1.14,1.14,0,0,0,0,2.281h17.1a1.157,1.157,0,0,0,.488-.114l15.621-7.4a3.089,3.089,0,0,1,2.87,5.465Zm0,0" transform="translate(0 -536.837)" fill="#0d13d7"/>
    <path id="Caminho_1416" data-name="Caminho 1416" d="M313.944,198.879a9.131,9.131,0,0,1,9.122-9.121v-2.28a11.414,11.414,0,0,0-11.4,11.4Zm0,0" transform="translate(-288.86 -173.296)" fill="#0d13d7"/>
    <path id="Caminho_1417" data-name="Caminho 1417" d="M467.5,354.707a11.414,11.414,0,0,0,11.4-11.4h-2.28a9.132,9.132,0,0,1-9.121,9.122Zm0,0" transform="translate(-433.294 -317.723)" fill="#0d13d7"/>
    <path id="Caminho_1418" data-name="Caminho 1418" d="M141.243,7.324a4.409,4.409,0,0,1,3.624,3.624,1.14,1.14,0,0,0,2.248,0,4.411,4.411,0,0,1,3.624-3.624,1.141,1.141,0,0,0,0-2.249,4.412,4.412,0,0,1-3.624-3.625,1.14,1.14,0,0,0-2.248,0,4.41,4.41,0,0,1-3.624,3.625,1.141,1.141,0,0,0,0,2.249Zm4.748-2.753A6.711,6.711,0,0,0,147.619,6.2a6.693,6.693,0,0,0-1.628,1.628A6.679,6.679,0,0,0,144.362,6.2,6.7,6.7,0,0,0,145.991,4.571Zm0,0" transform="translate(-130.028 0)" fill="#0d13d7"/>
    <path id="Caminho_1419" data-name="Caminho 1419" d="M702.239,396.9a4.409,4.409,0,0,1,3.623,3.624,1.14,1.14,0,0,0,2.249,0,4.411,4.411,0,0,1,3.624-3.624,1.14,1.14,0,0,0,0-2.249,4.412,4.412,0,0,1-3.624-3.624,1.14,1.14,0,0,0-2.249,0,4.41,4.41,0,0,1-3.623,3.624,1.14,1.14,0,0,0,0,2.249Zm4.748-2.753a6.712,6.712,0,0,0,1.628,1.629,6.7,6.7,0,0,0-1.628,1.628,6.682,6.682,0,0,0-1.628-1.628A6.7,6.7,0,0,0,706.987,394.149Zm0,0" transform="translate(-649.978 -361.074)" fill="#0d13d7"/>
    <path id="Caminho_1420" data-name="Caminho 1420" d="M408.584,250.949a3.42,3.42,0,0,0,0,6.841h2.28a1.14,1.14,0,1,1,0,2.28H406.3v2.281h2.28v1.14h2.28v-1.14a3.421,3.421,0,0,0,0-6.841h-2.28a1.14,1.14,0,0,1,0-2.28h4.561v-2.28h-2.281v-1.14h-2.28Zm0,0" transform="translate(-375.519 -231.068)" fill="#0d13d7"/>
  </g>
</svg>
